<mxfile host="app.diagrams.net" modified="2023-11-29T18:50:02.655Z" agent="Mozilla/5.0 (Windows NT 10.0; Win64; x64) AppleWebKit/537.36 (KHTML, like Gecko) Chrome/119.0.0.0 Safari/537.36" etag="aQ8ZI-BYwcDozBs1aPe7" version="22.1.4" type="github">
  <diagram name="Page-1" id="B5yTWrJ47T2mOAO-xigN">
    <mxGraphModel dx="3696" dy="907" grid="1" gridSize="10" guides="1" tooltips="1" connect="1" arrows="1" fold="1" page="1" pageScale="1" pageWidth="1600" pageHeight="900" math="0" shadow="0">
      <root>
        <mxCell id="0" />
        <mxCell id="1" parent="0" />
        <mxCell id="LFtlr_HMFEoI2J_1FoKJ-4" value="" style="shape=image;verticalLabelPosition=bottom;labelBackgroundColor=default;verticalAlign=top;aspect=fixed;imageAspect=0;image=https://i.imgur.com/YR6IKgm.png;clipPath=inset(0% 0% 0% 0% round 28%);" parent="1" vertex="1">
          <mxGeometry x="-1250" y="11.99" width="177" height="153.99" as="geometry" />
        </mxCell>
        <mxCell id="LFtlr_HMFEoI2J_1FoKJ-5" value="" style="shape=image;verticalLabelPosition=bottom;labelBackgroundColor=default;verticalAlign=top;aspect=fixed;imageAspect=0;image=https://i.imgur.com/BSGpTbH.png;clipPath=inset(0% 0% 0% 0% round 14%);" parent="1" vertex="1">
          <mxGeometry x="-1000" y="70" width="157" height="157" as="geometry" />
        </mxCell>
        <mxCell id="LFtlr_HMFEoI2J_1FoKJ-7" value="" style="shape=image;verticalLabelPosition=bottom;labelBackgroundColor=default;verticalAlign=top;aspect=fixed;imageAspect=0;image=https://i.imgur.com/IrE202X.jpg;clipPath=inset(0% 18% 0% 12.33% round 25%);" parent="1" vertex="1">
          <mxGeometry x="-760" y="65.7" width="172" height="161.3" as="geometry" />
        </mxCell>
        <mxCell id="LFtlr_HMFEoI2J_1FoKJ-8" value="" style="shape=image;verticalLabelPosition=bottom;labelBackgroundColor=default;verticalAlign=top;aspect=fixed;imageAspect=0;image=https://i.imgur.com/bPgNFiQ.jpg;clipPath=inset(0% 0% 0% 0% round 22%);" parent="1" vertex="1">
          <mxGeometry x="-510" y="11.99" width="161.61" height="161.61" as="geometry" />
        </mxCell>
        <mxCell id="hrkBk5p5sW1la8dxaBK3-1" value="" style="shape=image;verticalLabelPosition=bottom;labelBackgroundColor=default;verticalAlign=top;aspect=fixed;imageAspect=0;image=https://i.imgur.com/JEmwzkf.jpg;clipPath=inset(0% 0% 0% 0% round 26%);" parent="1" vertex="1">
          <mxGeometry x="-1200" y="680.01" width="372.5" height="209.84" as="geometry" />
        </mxCell>
        <mxCell id="hrkBk5p5sW1la8dxaBK3-2" value="" style="shape=image;verticalLabelPosition=bottom;labelBackgroundColor=default;verticalAlign=top;aspect=fixed;imageAspect=0;image=https://i.imgur.com/i6xr7U6.jpg;clipPath=inset(0% 0% 0% 0% round 50%);" parent="1" vertex="1">
          <mxGeometry x="-323.98" y="590" width="268" height="268" as="geometry" />
        </mxCell>
        <mxCell id="hrkBk5p5sW1la8dxaBK3-4" value="" style="shape=image;verticalLabelPosition=bottom;labelBackgroundColor=default;verticalAlign=top;aspect=fixed;imageAspect=0;image=https://i.imgur.com/BBEYaaE.png;clipPath=inset(1% 6.67% 0% 5.33% round 50%);" parent="1" vertex="1">
          <mxGeometry x="-1594" y="328.53000000000003" width="324" height="243" as="geometry" />
        </mxCell>
        <mxCell id="yxanTwf1TaR45OSPYr_J-1" value="" style="shape=image;verticalLabelPosition=bottom;labelBackgroundColor=default;verticalAlign=top;aspect=fixed;imageAspect=0;image=https://i.imgur.com/esW0HyD.png;clipPath=inset(1.46% 26.67% 1.47% 7% round 28%);" vertex="1" parent="1">
          <mxGeometry x="-780" y="681.52" width="411.61" height="206.81" as="geometry" />
        </mxCell>
        <mxCell id="yxanTwf1TaR45OSPYr_J-2" value="" style="shape=image;verticalLabelPosition=bottom;labelBackgroundColor=default;verticalAlign=top;aspect=fixed;imageAspect=0;image=https://i.imgur.com/75mLvag.png;clipPath=inset(0% 0% 0% 0% round 26%);" vertex="1" parent="1">
          <mxGeometry x="-1547" y="70" width="277" height="238.22" as="geometry" />
        </mxCell>
        <mxCell id="yxanTwf1TaR45OSPYr_J-4" value="" style="shape=image;verticalLabelPosition=bottom;labelBackgroundColor=default;verticalAlign=top;aspect=fixed;imageAspect=0;image=https://i.imgur.com/VjnqUQM.jpg;clipPath=inset(0% 0% 0% 0% round 16%);" vertex="1" parent="1">
          <mxGeometry x="-320.8000000000001" y="60.00000000000003" width="264.82" height="234.80706666666666" as="geometry" />
        </mxCell>
        <mxCell id="yxanTwf1TaR45OSPYr_J-5" value="" style="shape=image;verticalLabelPosition=bottom;labelBackgroundColor=default;verticalAlign=top;aspect=fixed;imageAspect=0;image=https://i.imgur.com/vFhnuZd.jpg;clipPath=inset(0% 0% 0% 0% round 50%);" vertex="1" parent="1">
          <mxGeometry x="-1520" y="590" width="270" height="270" as="geometry" />
        </mxCell>
        <mxCell id="yxanTwf1TaR45OSPYr_J-15" value="" style="shape=image;verticalLabelPosition=bottom;labelBackgroundColor=default;verticalAlign=top;aspect=fixed;imageAspect=0;image=https://i.imgur.com/6MNcoyG.jpg;clipPath=inset(8.02% 4.67% 2.47% 5.67% round 20%);" vertex="1" parent="1">
          <mxGeometry x="-368.39" y="353" width="360" height="194.05204460966544" as="geometry" />
        </mxCell>
        <mxCell id="yxanTwf1TaR45OSPYr_J-16" value="" style="shape=image;verticalLabelPosition=bottom;labelBackgroundColor=default;verticalAlign=top;aspect=fixed;imageAspect=0;image=https://i.imgur.com/ZBjunPL.jpg;clipPath=inset(0% 0% 0% 0% round 50%);" vertex="1" parent="1">
          <mxGeometry x="-949" y="365" width="297.38" height="169.50660000000002" as="geometry" />
        </mxCell>
      </root>
    </mxGraphModel>
  </diagram>
</mxfile>
